<svg width="300" height="56" viewBox="0 0 300 56" fill="none" xmlns="http://www.w3.org/2000/svg">
<path d="M16.9209 42.0059V48.4727C16.9209 49.612 16.5768 50.5075 15.8887 51.1592C15.2005 51.8109 14.2549 52.1367 13.0518 52.1367C11.8486 52.1367 10.9167 51.8086 10.2559 51.1523C9.59961 50.4961 9.27148 49.5938 9.27148 48.4453V42.0059H10.4336V48.5273C10.4336 49.3613 10.6615 50.0016 11.1172 50.4482C11.5729 50.8949 12.2428 51.1182 13.127 51.1182C13.9701 51.1182 14.6195 50.8949 15.0752 50.4482C15.5309 49.9971 15.7588 49.3522 15.7588 48.5137V42.0059H16.9209ZM28.9521 52V47.126C28.9521 46.529 28.8245 46.0824 28.5693 45.7861C28.3141 45.4854 27.9176 45.335 27.3799 45.335C26.6735 45.335 26.1517 45.5378 25.8145 45.9434C25.4772 46.349 25.3086 46.9733 25.3086 47.8164V52H24.1738V47.126C24.1738 46.529 24.0462 46.0824 23.791 45.7861C23.5358 45.4854 23.137 45.335 22.5947 45.335C21.8838 45.335 21.362 45.5492 21.0293 45.9775C20.7012 46.4014 20.5371 47.0986 20.5371 48.0693V52H19.4023V44.5078H20.3252L20.5098 45.5332H20.5645C20.7786 45.1686 21.0794 44.8838 21.4668 44.6787C21.8587 44.4736 22.2962 44.3711 22.7793 44.3711C23.9505 44.3711 24.7161 44.7949 25.0762 45.6426H25.1309C25.3542 45.2507 25.6777 44.9408 26.1016 44.7129C26.5254 44.485 27.0085 44.3711 27.5508 44.3711C28.3984 44.3711 29.0319 44.5898 29.4512 45.0273C29.875 45.4603 30.0869 46.1553 30.0869 47.1123V52H28.9521ZM41.1953 52V47.1533C41.1953 46.5426 41.0563 46.0869 40.7783 45.7861C40.5003 45.4854 40.0651 45.335 39.4727 45.335C38.6888 45.335 38.1146 45.5469 37.75 45.9707C37.3854 46.3945 37.2031 47.0941 37.2031 48.0693V52H36.0684V44.5078H36.9912L37.1758 45.5332H37.2305C37.4629 45.1641 37.7887 44.8792 38.208 44.6787C38.6273 44.4736 39.0944 44.3711 39.6094 44.3711C40.5117 44.3711 41.1908 44.5898 41.6465 45.0273C42.1022 45.4603 42.3301 46.1553 42.3301 47.1123V52H41.1953ZM51.1348 48.2471C51.1348 49.4684 50.8271 50.4232 50.2119 51.1113C49.5967 51.7949 48.7467 52.1367 47.6621 52.1367C46.9922 52.1367 46.3975 51.9795 45.8779 51.665C45.3584 51.3506 44.9574 50.8994 44.6748 50.3115C44.3923 49.7236 44.251 49.0355 44.251 48.2471C44.251 47.0257 44.5563 46.0755 45.167 45.3965C45.7777 44.7129 46.6253 44.3711 47.71 44.3711C48.7581 44.3711 49.5898 44.7197 50.2051 45.417C50.8249 46.1143 51.1348 47.0576 51.1348 48.2471ZM45.4268 48.2471C45.4268 49.2041 45.6182 49.9333 46.001 50.4346C46.3838 50.9359 46.9466 51.1865 47.6895 51.1865C48.4323 51.1865 48.9951 50.9382 49.3779 50.4414C49.7653 49.9401 49.959 49.2087 49.959 48.2471C49.959 47.2946 49.7653 46.5723 49.3779 46.0801C48.9951 45.5833 48.4277 45.335 47.6758 45.335C46.9329 45.335 46.3724 45.5788 45.9941 46.0664C45.6159 46.554 45.4268 47.2809 45.4268 48.2471ZM54.7715 52L51.9277 44.5078H53.1445L54.7578 48.9512C55.1224 49.9902 55.3366 50.6647 55.4004 50.9746H55.4551C55.5052 50.7331 55.6624 50.234 55.9268 49.4775C56.1956 48.7165 56.7949 47.0599 57.7246 44.5078H58.9414L56.0977 52H54.7715ZM66.6113 48.2471C66.6113 49.4684 66.3037 50.4232 65.6885 51.1113C65.0732 51.7949 64.2233 52.1367 63.1387 52.1367C62.4688 52.1367 61.874 51.9795 61.3545 51.665C60.835 51.3506 60.4339 50.8994 60.1514 50.3115C59.8688 49.7236 59.7275 49.0355 59.7275 48.2471C59.7275 47.0257 60.0329 46.0755 60.6436 45.3965C61.2542 44.7129 62.1019 44.3711 63.1865 44.3711C64.2347 44.3711 65.0664 44.7197 65.6816 45.417C66.3014 46.1143 66.6113 47.0576 66.6113 48.2471ZM60.9033 48.2471C60.9033 49.2041 61.0947 49.9333 61.4775 50.4346C61.8604 50.9359 62.4232 51.1865 63.166 51.1865C63.9089 51.1865 64.4717 50.9382 64.8545 50.4414C65.2419 49.9401 65.4355 49.2087 65.4355 48.2471C65.4355 47.2946 65.2419 46.5723 64.8545 46.0801C64.4717 45.5833 63.9043 45.335 63.1523 45.335C62.4095 45.335 61.849 45.5788 61.4707 46.0664C61.0924 46.554 60.9033 47.2809 60.9033 48.2471ZM77.0771 49.9561C77.0771 50.6533 76.8174 51.1911 76.2979 51.5693C75.7783 51.9476 75.0492 52.1367 74.1104 52.1367C73.1169 52.1367 72.3421 51.9795 71.7861 51.665V50.6123C72.1462 50.7946 72.5312 50.9382 72.9414 51.043C73.3561 51.1478 73.7549 51.2002 74.1377 51.2002C74.7301 51.2002 75.1859 51.1068 75.5049 50.9199C75.8239 50.7285 75.9834 50.4391 75.9834 50.0518C75.9834 49.7601 75.8558 49.5117 75.6006 49.3066C75.3499 49.097 74.8577 48.8509 74.124 48.5684C73.4268 48.3086 72.93 48.083 72.6338 47.8916C72.3421 47.6956 72.1234 47.4746 71.9775 47.2285C71.8363 46.9824 71.7656 46.6885 71.7656 46.3467C71.7656 45.736 72.014 45.2552 72.5107 44.9043C73.0075 44.5488 73.6888 44.3711 74.5547 44.3711C75.3613 44.3711 76.1497 44.5352 76.9199 44.8633L76.5166 45.7861C75.7646 45.4762 75.0833 45.3213 74.4727 45.3213C73.9349 45.3213 73.5293 45.4056 73.2559 45.5742C72.9824 45.7428 72.8457 45.9753 72.8457 46.2715C72.8457 46.472 72.8958 46.6429 72.9961 46.7842C73.1009 46.9255 73.2673 47.0599 73.4951 47.1875C73.723 47.3151 74.1605 47.4997 74.8076 47.7412C75.6963 48.0648 76.2956 48.3906 76.6055 48.7188C76.9199 49.0469 77.0771 49.4593 77.0771 49.9561ZM80.0645 52H78.9297V44.5078H80.0645V52ZM78.834 42.4775C78.834 42.2178 78.8978 42.0286 79.0254 41.9102C79.153 41.7871 79.3125 41.7256 79.5039 41.7256C79.6862 41.7256 79.8434 41.7871 79.9756 41.9102C80.1077 42.0332 80.1738 42.2223 80.1738 42.4775C80.1738 42.7327 80.1077 42.9242 79.9756 43.0518C79.8434 43.1748 79.6862 43.2363 79.5039 43.2363C79.3125 43.2363 79.153 43.1748 79.0254 43.0518C78.8978 42.9242 78.834 42.7327 78.834 42.4775ZM87.3037 49.9561C87.3037 50.6533 87.0439 51.1911 86.5244 51.5693C86.0049 51.9476 85.2757 52.1367 84.3369 52.1367C83.3434 52.1367 82.5687 51.9795 82.0127 51.665V50.6123C82.3727 50.7946 82.7578 50.9382 83.168 51.043C83.5827 51.1478 83.9814 51.2002 84.3643 51.2002C84.9567 51.2002 85.4124 51.1068 85.7314 50.9199C86.0505 50.7285 86.21 50.4391 86.21 50.0518C86.21 49.7601 86.0824 49.5117 85.8271 49.3066C85.5765 49.097 85.0843 48.8509 84.3506 48.5684C83.6533 48.3086 83.1566 48.083 82.8604 47.8916C82.5687 47.6956 82.3499 47.4746 82.2041 47.2285C82.0628 46.9824 81.9922 46.6885 81.9922 46.3467C81.9922 45.736 82.2406 45.2552 82.7373 44.9043C83.234 44.5488 83.9154 44.3711 84.7812 44.3711C85.5879 44.3711 86.3763 44.5352 87.1465 44.8633L86.7432 45.7861C85.9912 45.4762 85.3099 45.3213 84.6992 45.3213C84.1615 45.3213 83.7559 45.4056 83.4824 45.5742C83.209 45.7428 83.0723 45.9753 83.0723 46.2715C83.0723 46.472 83.1224 46.6429 83.2227 46.7842C83.3275 46.9255 83.4938 47.0599 83.7217 47.1875C83.9495 47.3151 84.387 47.4997 85.0342 47.7412C85.9229 48.0648 86.5221 48.3906 86.832 48.7188C87.1465 49.0469 87.3037 49.4593 87.3037 49.9561ZM91.5762 51.2002C91.7767 51.2002 91.9704 51.1865 92.1572 51.1592C92.3441 51.1273 92.4922 51.0954 92.6016 51.0635V51.9316C92.4785 51.9909 92.2962 52.0387 92.0547 52.0752C91.8177 52.1162 91.6035 52.1367 91.4121 52.1367C89.9629 52.1367 89.2383 51.3734 89.2383 49.8467V45.3896H88.165V44.8428L89.2383 44.3711L89.7168 42.7715H90.373V44.5078H92.5469V45.3896H90.373V49.7988C90.373 50.25 90.4801 50.5964 90.6943 50.8379C90.9085 51.0794 91.2025 51.2002 91.5762 51.2002ZM97.2705 52.1367C96.1631 52.1367 95.2881 51.7995 94.6455 51.125C94.0075 50.4505 93.6885 49.514 93.6885 48.3154C93.6885 47.1077 93.9847 46.1484 94.5771 45.4375C95.1742 44.7266 95.974 44.3711 96.9766 44.3711C97.9154 44.3711 98.6582 44.681 99.2051 45.3008C99.752 45.916 100.025 46.7295 100.025 47.7412V48.459H94.8643C94.887 49.3385 95.1081 50.0062 95.5273 50.4619C95.9512 50.9176 96.5459 51.1455 97.3115 51.1455C98.1182 51.1455 98.9157 50.9769 99.7041 50.6396V51.6514C99.3031 51.8245 98.9225 51.9476 98.5625 52.0205C98.207 52.098 97.7764 52.1367 97.2705 52.1367ZM96.9629 45.3213C96.3613 45.3213 95.8805 45.5173 95.5205 45.9092C95.165 46.3011 94.9554 46.8434 94.8916 47.5361H98.8086C98.8086 46.8206 98.6491 46.2738 98.3301 45.8955C98.0111 45.5127 97.5553 45.3213 96.9629 45.3213ZM111.517 52V47.126C111.517 46.529 111.389 46.0824 111.134 45.7861C110.879 45.4854 110.482 45.335 109.944 45.335C109.238 45.335 108.716 45.5378 108.379 45.9434C108.042 46.349 107.873 46.9733 107.873 47.8164V52H106.738V47.126C106.738 46.529 106.611 46.0824 106.355 45.7861C106.1 45.4854 105.701 45.335 105.159 45.335C104.448 45.335 103.926 45.5492 103.594 45.9775C103.266 46.4014 103.102 47.0986 103.102 48.0693V52H101.967V44.5078H102.89L103.074 45.5332H103.129C103.343 45.1686 103.644 44.8838 104.031 44.6787C104.423 44.4736 104.861 44.3711 105.344 44.3711C106.515 44.3711 107.281 44.7949 107.641 45.6426H107.695C107.919 45.2507 108.242 44.9408 108.666 44.7129C109.09 44.485 109.573 44.3711 110.115 44.3711C110.963 44.3711 111.596 44.5898 112.016 45.0273C112.439 45.4603 112.651 46.1553 112.651 47.1123V52H111.517ZM119.604 52L119.378 50.9336H119.323C118.95 51.403 118.576 51.722 118.202 51.8906C117.833 52.0547 117.37 52.1367 116.814 52.1367C116.072 52.1367 115.488 51.9453 115.064 51.5625C114.645 51.1797 114.436 50.6351 114.436 49.9287C114.436 48.4157 115.646 47.6227 118.065 47.5498L119.337 47.5088V47.0439C119.337 46.4561 119.209 46.0231 118.954 45.7451C118.703 45.4626 118.3 45.3213 117.744 45.3213C117.12 45.3213 116.413 45.5127 115.625 45.8955L115.276 45.0273C115.646 44.8268 116.049 44.6696 116.486 44.5557C116.928 44.4417 117.37 44.3848 117.812 44.3848C118.706 44.3848 119.367 44.583 119.795 44.9795C120.228 45.376 120.444 46.0117 120.444 46.8867V52H119.604ZM117.04 51.2002C117.746 51.2002 118.3 51.0065 118.701 50.6191C119.107 50.2318 119.31 49.6895 119.31 48.9922V48.3154L118.175 48.3633C117.272 48.3952 116.621 48.5365 116.22 48.7871C115.823 49.0332 115.625 49.4183 115.625 49.9424C115.625 50.3525 115.748 50.6647 115.994 50.8789C116.245 51.0931 116.593 51.2002 117.04 51.2002ZM127.492 44.5078V49.3682C127.492 49.9788 127.631 50.4346 127.909 50.7354C128.187 51.0361 128.622 51.1865 129.215 51.1865C129.999 51.1865 130.571 50.9723 130.931 50.5439C131.295 50.1156 131.478 49.416 131.478 48.4453V44.5078H132.612V52H131.676L131.512 50.9951H131.45C131.218 51.3643 130.894 51.6468 130.479 51.8428C130.069 52.0387 129.6 52.1367 129.071 52.1367C128.16 52.1367 127.476 51.9202 127.021 51.4873C126.569 51.0544 126.344 50.3617 126.344 49.4092V44.5078H127.492ZM144.575 52V47.126C144.575 46.529 144.448 46.0824 144.192 45.7861C143.937 45.4854 143.541 45.335 143.003 45.335C142.297 45.335 141.775 45.5378 141.438 45.9434C141.1 46.349 140.932 46.9733 140.932 47.8164V52H139.797V47.126C139.797 46.529 139.669 46.0824 139.414 45.7861C139.159 45.4854 138.76 45.335 138.218 45.335C137.507 45.335 136.985 45.5492 136.652 45.9775C136.324 46.4014 136.16 47.0986 136.16 48.0693V52H135.025V44.5078H135.948L136.133 45.5332H136.188C136.402 45.1686 136.702 44.8838 137.09 44.6787C137.482 44.4736 137.919 44.3711 138.402 44.3711C139.574 44.3711 140.339 44.7949 140.699 45.6426H140.754C140.977 45.2507 141.301 44.9408 141.725 44.7129C142.148 44.485 142.632 44.3711 143.174 44.3711C144.021 44.3711 144.655 44.5898 145.074 45.0273C145.498 45.4603 145.71 46.1553 145.71 47.1123V52H144.575ZM152.662 52L152.437 50.9336H152.382C152.008 51.403 151.634 51.722 151.261 51.8906C150.892 52.0547 150.429 52.1367 149.873 52.1367C149.13 52.1367 148.547 51.9453 148.123 51.5625C147.704 51.1797 147.494 50.6351 147.494 49.9287C147.494 48.4157 148.704 47.6227 151.124 47.5498L152.396 47.5088V47.0439C152.396 46.4561 152.268 46.0231 152.013 45.7451C151.762 45.4626 151.359 45.3213 150.803 45.3213C150.178 45.3213 149.472 45.5127 148.684 45.8955L148.335 45.0273C148.704 44.8268 149.107 44.6696 149.545 44.5557C149.987 44.4417 150.429 44.3848 150.871 44.3848C151.764 44.3848 152.425 44.583 152.854 44.9795C153.286 45.376 153.503 46.0117 153.503 46.8867V52H152.662ZM150.099 51.2002C150.805 51.2002 151.359 51.0065 151.76 50.6191C152.165 50.2318 152.368 49.6895 152.368 48.9922V48.3154L151.233 48.3633C150.331 48.3952 149.679 48.5365 149.278 48.7871C148.882 49.0332 148.684 49.4183 148.684 49.9424C148.684 50.3525 148.807 50.6647 149.053 50.8789C149.303 51.0931 149.652 51.2002 150.099 51.2002ZM164.611 52V47.1533C164.611 46.5426 164.472 46.0869 164.194 45.7861C163.916 45.4854 163.481 45.335 162.889 45.335C162.105 45.335 161.531 45.5469 161.166 45.9707C160.801 46.3945 160.619 47.0941 160.619 48.0693V52H159.484V44.5078H160.407L160.592 45.5332H160.646C160.879 45.1641 161.205 44.8792 161.624 44.6787C162.043 44.4736 162.51 44.3711 163.025 44.3711C163.928 44.3711 164.607 44.5898 165.062 45.0273C165.518 45.4603 165.746 46.1553 165.746 47.1123V52H164.611ZM174.551 48.2471C174.551 49.4684 174.243 50.4232 173.628 51.1113C173.013 51.7949 172.163 52.1367 171.078 52.1367C170.408 52.1367 169.813 51.9795 169.294 51.665C168.774 51.3506 168.373 50.8994 168.091 50.3115C167.808 49.7236 167.667 49.0355 167.667 48.2471C167.667 47.0257 167.972 46.0755 168.583 45.3965C169.194 44.7129 170.041 44.3711 171.126 44.3711C172.174 44.3711 173.006 44.7197 173.621 45.417C174.241 46.1143 174.551 47.0576 174.551 48.2471ZM168.843 48.2471C168.843 49.2041 169.034 49.9333 169.417 50.4346C169.8 50.9359 170.363 51.1865 171.105 51.1865C171.848 51.1865 172.411 50.9382 172.794 50.4414C173.181 49.9401 173.375 49.2087 173.375 48.2471C173.375 47.2946 173.181 46.5723 172.794 46.0801C172.411 45.5833 171.844 45.335 171.092 45.335C170.349 45.335 169.788 45.5788 169.41 46.0664C169.032 46.554 168.843 47.2809 168.843 48.2471ZM178.188 52L175.344 44.5078H176.561L178.174 48.9512C178.538 49.9902 178.753 50.6647 178.816 50.9746H178.871C178.921 50.7331 179.078 50.234 179.343 49.4775C179.612 48.7165 180.211 47.0599 181.141 44.5078H182.357L179.514 52H178.188ZM188.168 52L187.942 50.9336H187.888C187.514 51.403 187.14 51.722 186.767 51.8906C186.397 52.0547 185.935 52.1367 185.379 52.1367C184.636 52.1367 184.053 51.9453 183.629 51.5625C183.21 51.1797 183 50.6351 183 49.9287C183 48.4157 184.21 47.6227 186.63 47.5498L187.901 47.5088V47.0439C187.901 46.4561 187.774 46.0231 187.519 45.7451C187.268 45.4626 186.865 45.3213 186.309 45.3213C185.684 45.3213 184.978 45.5127 184.189 45.8955L183.841 45.0273C184.21 44.8268 184.613 44.6696 185.051 44.5557C185.493 44.4417 185.935 44.3848 186.377 44.3848C187.27 44.3848 187.931 44.583 188.359 44.9795C188.792 45.376 189.009 46.0117 189.009 46.8867V52H188.168ZM185.604 51.2002C186.311 51.2002 186.865 51.0065 187.266 50.6191C187.671 50.2318 187.874 49.6895 187.874 48.9922V48.3154L186.739 48.3633C185.837 48.3952 185.185 48.5365 184.784 48.7871C184.388 49.0332 184.189 49.4183 184.189 49.9424C184.189 50.3525 184.312 50.6647 184.559 50.8789C184.809 51.0931 185.158 51.2002 185.604 51.2002ZM200.117 52V47.1533C200.117 46.5426 199.978 46.0869 199.7 45.7861C199.422 45.4854 198.987 45.335 198.395 45.335C197.606 45.335 197.03 45.5492 196.665 45.9775C196.305 46.4059 196.125 47.1077 196.125 48.083V52H194.99V41.3633H196.125V44.583C196.125 44.9704 196.107 45.2917 196.07 45.5469H196.139C196.362 45.1868 196.679 44.9043 197.089 44.6992C197.504 44.4896 197.975 44.3848 198.504 44.3848C199.42 44.3848 200.106 44.6035 200.562 45.041C201.022 45.474 201.252 46.1644 201.252 47.1123V52H200.117ZM204.725 52H203.59V44.5078H204.725V52ZM203.494 42.4775C203.494 42.2178 203.558 42.0286 203.686 41.9102C203.813 41.7871 203.973 41.7256 204.164 41.7256C204.346 41.7256 204.504 41.7871 204.636 41.9102C204.768 42.0332 204.834 42.2223 204.834 42.4775C204.834 42.7327 204.768 42.9242 204.636 43.0518C204.504 43.1748 204.346 43.2363 204.164 43.2363C203.973 43.2363 203.813 43.1748 203.686 43.0518C203.558 42.9242 203.494 42.7327 203.494 42.4775ZM211.964 49.9561C211.964 50.6533 211.704 51.1911 211.185 51.5693C210.665 51.9476 209.936 52.1367 208.997 52.1367C208.004 52.1367 207.229 51.9795 206.673 51.665V50.6123C207.033 50.7946 207.418 50.9382 207.828 51.043C208.243 51.1478 208.642 51.2002 209.024 51.2002C209.617 51.2002 210.073 51.1068 210.392 50.9199C210.711 50.7285 210.87 50.4391 210.87 50.0518C210.87 49.7601 210.743 49.5117 210.487 49.3066C210.237 49.097 209.744 48.8509 209.011 48.5684C208.313 48.3086 207.817 48.083 207.521 47.8916C207.229 47.6956 207.01 47.4746 206.864 47.2285C206.723 46.9824 206.652 46.6885 206.652 46.3467C206.652 45.736 206.901 45.2552 207.397 44.9043C207.894 44.5488 208.576 44.3711 209.441 44.3711C210.248 44.3711 211.036 44.5352 211.807 44.8633L211.403 45.7861C210.651 45.4762 209.97 45.3213 209.359 45.3213C208.822 45.3213 208.416 45.4056 208.143 45.5742C207.869 45.7428 207.732 45.9753 207.732 46.2715C207.732 46.472 207.783 46.6429 207.883 46.7842C207.988 46.9255 208.154 47.0599 208.382 47.1875C208.61 47.3151 209.047 47.4997 209.694 47.7412C210.583 48.0648 211.182 48.3906 211.492 48.7188C211.807 49.0469 211.964 49.4593 211.964 49.9561ZM216.236 51.2002C216.437 51.2002 216.631 51.1865 216.817 51.1592C217.004 51.1273 217.152 51.0954 217.262 51.0635V51.9316C217.139 51.9909 216.956 52.0387 216.715 52.0752C216.478 52.1162 216.264 52.1367 216.072 52.1367C214.623 52.1367 213.898 51.3734 213.898 49.8467V45.3896H212.825V44.8428L213.898 44.3711L214.377 42.7715H215.033V44.5078H217.207V45.3896H215.033V49.7988C215.033 50.25 215.14 50.5964 215.354 50.8379C215.569 51.0794 215.863 51.2002 216.236 51.2002ZM225.232 48.2471C225.232 49.4684 224.925 50.4232 224.31 51.1113C223.694 51.7949 222.844 52.1367 221.76 52.1367C221.09 52.1367 220.495 51.9795 219.976 51.665C219.456 51.3506 219.055 50.8994 218.772 50.3115C218.49 49.7236 218.349 49.0355 218.349 48.2471C218.349 47.0257 218.654 46.0755 219.265 45.3965C219.875 44.7129 220.723 44.3711 221.808 44.3711C222.856 44.3711 223.688 44.7197 224.303 45.417C224.923 46.1143 225.232 47.0576 225.232 48.2471ZM219.524 48.2471C219.524 49.2041 219.716 49.9333 220.099 50.4346C220.481 50.9359 221.044 51.1865 221.787 51.1865C222.53 51.1865 223.093 50.9382 223.476 50.4414C223.863 49.9401 224.057 49.2087 224.057 48.2471C224.057 47.2946 223.863 46.5723 223.476 46.0801C223.093 45.5833 222.525 45.335 221.773 45.335C221.031 45.335 220.47 45.5788 220.092 46.0664C219.714 46.554 219.524 47.2809 219.524 48.2471ZM220.837 43.3457C221.056 43.0632 221.29 42.7214 221.541 42.3203C221.796 41.9193 221.997 41.5706 222.143 41.2744H223.523V41.418C223.323 41.7142 223.024 42.0788 222.628 42.5117C222.231 42.9447 221.887 43.2796 221.596 43.5166H220.837V43.3457ZM230.646 44.3711C230.979 44.3711 231.278 44.3984 231.542 44.4531L231.385 45.5059C231.075 45.4375 230.801 45.4033 230.564 45.4033C229.958 45.4033 229.439 45.6494 229.006 46.1416C228.577 46.6338 228.363 47.2467 228.363 47.9805V52H227.229V44.5078H228.165L228.295 45.8955H228.35C228.628 45.4079 228.963 45.0319 229.354 44.7676C229.746 44.5033 230.177 44.3711 230.646 44.3711ZM234.078 52H232.943V44.5078H234.078V52ZM232.848 42.4775C232.848 42.2178 232.911 42.0286 233.039 41.9102C233.167 41.7871 233.326 41.7256 233.518 41.7256C233.7 41.7256 233.857 41.7871 233.989 41.9102C234.121 42.0332 234.188 42.2223 234.188 42.4775C234.188 42.7327 234.121 42.9242 233.989 43.0518C233.857 43.1748 233.7 43.2363 233.518 43.2363C233.326 43.2363 233.167 43.1748 233.039 43.0518C232.911 42.9242 232.848 42.7327 232.848 42.4775ZM241.092 52L240.866 50.9336H240.812C240.438 51.403 240.064 51.722 239.69 51.8906C239.321 52.0547 238.859 52.1367 238.303 52.1367C237.56 52.1367 236.977 51.9453 236.553 51.5625C236.133 51.1797 235.924 50.6351 235.924 49.9287C235.924 48.4157 237.134 47.6227 239.554 47.5498L240.825 47.5088V47.0439C240.825 46.4561 240.698 46.0231 240.442 45.7451C240.192 45.4626 239.788 45.3213 239.232 45.3213C238.608 45.3213 237.902 45.5127 237.113 45.8955L236.765 45.0273C237.134 44.8268 237.537 44.6696 237.975 44.5557C238.417 44.4417 238.859 44.3848 239.301 44.3848C240.194 44.3848 240.855 44.583 241.283 44.9795C241.716 45.376 241.933 46.0117 241.933 46.8867V52H241.092ZM238.528 51.2002C239.235 51.2002 239.788 51.0065 240.189 50.6191C240.595 50.2318 240.798 49.6895 240.798 48.9922V48.3154L239.663 48.3633C238.761 48.3952 238.109 48.5365 237.708 48.7871C237.312 49.0332 237.113 49.4183 237.113 49.9424C237.113 50.3525 237.236 50.6647 237.482 50.8789C237.733 51.0931 238.082 51.2002 238.528 51.2002ZM245.303 49.2451H244.585L244.236 42.0059H245.651L245.303 49.2451ZM244.113 51.2754C244.113 50.6556 244.387 50.3457 244.934 50.3457C245.198 50.3457 245.401 50.4255 245.542 50.585C245.688 50.7445 245.761 50.9746 245.761 51.2754C245.761 51.5671 245.688 51.7949 245.542 51.959C245.396 52.1185 245.193 52.1982 244.934 52.1982C244.697 52.1982 244.501 52.1276 244.346 51.9863C244.191 51.8405 244.113 51.6035 244.113 51.2754Z" fill="white"/>
<g clip-path="url(#clip0)">
<path fill-rule="evenodd" clip-rule="evenodd" d="M31.5886 7.9612H45.7661C47.5459 7.9612 49.1016 8.3993 50.0285 9.29555C51.1491 10.3787 51.6069 11.6612 51.3732 13.3173C51.1417 14.9559 50.345 15.9987 49.0858 16.6303C47.9788 17.1857 45.685 17.2905 44.0252 17.2905H31.5888V32.9638H40.7916V24.3811H45.7663C45.8995 24.8796 46.8194 26.0534 47.1338 26.496C47.6373 27.2052 48.0509 27.9251 48.5917 28.6453L51.4869 32.9638H61.436C60.8808 31.9139 58.756 29.0755 58.0038 27.938C57.4169 27.0505 56.8477 26.3344 56.2617 25.4512L54.9456 23.5333C54.7564 23.2533 54.6347 23.1317 54.4717 22.888C56.1478 22.0008 57.6222 20.8964 58.7012 19.406C61.0849 16.1131 61.3836 10.5043 59.4429 7.09369C58.1151 4.76014 57.02 3.89159 54.8698 2.58719C53.0666 1.49323 49.8914 0.746445 47.6317 0.746445H31.5888V7.96102V7.96085L31.5886 7.9612Z" fill="#FEFEFE"/>
<path fill-rule="evenodd" clip-rule="evenodd" d="M99.6155 16.6685C99.6155 20.5311 100.526 23.736 102.6 26.4953C103.995 28.3514 105.025 29.3126 106.878 30.5512C109.523 32.3196 112.978 33.2901 116.452 33.4611H118.677C121.301 33.3308 123.837 32.7374 125.939 31.6784C127.97 30.6553 130.136 29.147 131.328 27.366L129.244 25.3458C128.916 25.0561 128.767 24.9984 128.435 24.6622C128.084 24.3062 125.823 22.1412 125.359 22.0172C125.249 22.4276 125.068 22.5032 124.769 22.7957C124.011 23.5383 123.334 24.0912 122.399 24.6547C117.153 27.817 109.067 24.6514 109.067 17.4147C109.067 14.506 109.276 12.8556 111.073 10.5893C111.72 9.77285 111.405 10.1336 112.137 9.53873C114.961 7.2435 119.171 6.99109 122.415 8.79108C123.386 9.32952 124.912 10.5907 125.483 11.4441L127.634 9.49065C128.266 8.96196 131.052 6.50856 131.328 6.09536C130.873 5.23378 129.784 4.32168 129.005 3.69265L126.937 2.27747C126.608 2.09352 126.504 1.99388 126.15 1.82125C122.896 0.234653 120.243 0.000183105 116.529 0.000183105C111.611 0.000183105 107.023 2.34123 104.559 4.82024C104.214 5.16689 103.881 5.45815 103.565 5.81647C102.547 6.97123 101.754 8.22807 101.065 9.65963C100.197 11.4617 99.6153 14.0461 99.6153 16.6685V16.6686L99.6155 16.6685Z" fill="#FEFEFE"/>
<path fill-rule="evenodd" clip-rule="evenodd" d="M63.6743 32.9635H73.1261L79.9482 15.7797C80.2862 14.9343 82.1642 10.4365 82.2046 9.95123H82.4533C82.4984 10.4937 86.6765 20.7006 86.9835 21.4664L91.5319 32.9635H101.232C100.913 32.3602 100.666 31.6014 100.362 30.9732L98.603 27.0102C98.3332 26.3476 97.977 25.6696 97.678 24.95L94.1413 16.9191C92.9489 14.2642 91.8254 11.5833 90.5787 8.91423C90.2518 8.215 90.0404 7.61628 89.7079 6.92437L87.9231 2.86312C87.7256 2.4238 87.0938 1.21695 87.0546 0.746445H77.8516C77.1238 2.12226 75.1783 6.84075 74.2871 8.74927C73.9602 9.4485 73.7488 10.047 73.4163 10.7391C71.3847 14.9697 69.1901 20.647 67.1983 24.7953L65.398 28.8411C65.1385 29.4788 64.8126 30.1364 64.5277 30.8314C64.3307 31.3121 63.7189 32.4292 63.6743 32.9633L63.6741 32.9635H63.6743Z" fill="#FEFEFE"/>
<path fill-rule="evenodd" clip-rule="evenodd" d="M175.353 32.9635H184.805C185.216 32.1068 185.563 31.0403 185.941 30.119L194.008 9.82685L195.18 12.6346C195.589 13.6569 195.97 14.6086 196.353 15.5665L200.936 27.1529C201.296 28.0544 203.164 32.406 203.211 32.9635H212.911L208.517 22.9295C208.184 22.2374 207.973 21.6389 207.646 20.9394C207.321 20.2453 207.064 19.6823 206.764 18.96L204.969 14.9091C203.428 11.1488 201.139 6.57248 199.621 2.84361L198.733 0.746613H189.531C189.432 1.17166 189.295 1.30701 189.122 1.70609C188.952 2.09612 188.813 2.42414 188.678 2.75477L186.007 8.79037C185.362 10.1324 184.898 11.4164 184.266 12.7708L176.265 30.8908C175.931 31.5871 175.687 32.3332 175.353 32.9636L175.353 32.9638L175.353 32.9635Z" fill="#FEFEFE"/>
<path fill-rule="evenodd" clip-rule="evenodd" d="M-8.94551e-06 8.08557H9.8247V32.9636H19.1522V8.08557H28.9767V0.746445H-0.000183105V8.08557H-8.94551e-06Z" fill="#FEFEFE"/>
<path fill-rule="evenodd" clip-rule="evenodd" d="M132.696 8.08557H142.521V32.9636H151.724V8.08557H161.673V0.746445H132.696V8.08557H132.696Z" fill="#FEFEFE"/>
<path fill-rule="evenodd" clip-rule="evenodd" d="M164.285 32.9635H173.487V0.746445H164.285V32.9635Z" fill="#FEFEFE"/>
<path fill-rule="evenodd" clip-rule="evenodd" d="M214.776 4.97596C214.776 5.26844 221.812 13.6637 221.962 13.8355C222.484 14.4346 222.928 14.9638 223.427 15.6034C225.922 18.7989 229.471 22.8521 232.159 26.1509L236.557 31.4537C236.821 31.7798 237.05 32.0338 237.286 32.3421C237.459 32.5699 237.791 33.088 238.157 33.088H245.494V29.3563C245.494 29.0586 245.024 28.5871 244.855 28.3782L237.037 18.4101C234.98 15.7759 232.524 13.0375 230.462 10.4329C230.213 10.1178 230.007 9.85454 229.732 9.54622C229.462 9.24329 229.26 8.98739 228.992 8.66913C228.726 8.35279 228.513 8.10508 228.261 7.78385L223.141 1.5852C222.886 1.29708 222.623 0.746613 222.238 0.746613H214.776V4.97596H214.776Z" fill="#FEFEFE"/>
<path fill-rule="evenodd" clip-rule="evenodd" d="M214.776 32.9635H223.855V23.5097C223.855 22.8258 222.161 21.0482 221.758 20.5071L217.281 14.7852C216.876 14.2786 216.518 13.8515 216.127 13.3268C215.796 12.8825 215.329 12.2287 214.901 11.9414C214.901 19.0919 214.776 25.8774 214.776 32.9633V32.9635Z" fill="#FEFEFE"/>
<path fill-rule="evenodd" clip-rule="evenodd" d="M236.415 9.82685C236.415 10.2495 240.476 14.9328 240.821 15.3716C241.206 15.8609 241.573 16.2325 241.959 16.7207L244.775 20.1246C245.111 20.5212 244.982 20.6365 245.494 20.7733V0.746613H236.415V9.82702V9.82685Z" fill="#FEFEFE"/>
<path d="M263.82 23.6111C264.029 23.9235 264.055 24.1964 263.899 24.4307C263.742 24.6648 263.586 24.8859 263.43 25.0941C262.286 26.6551 260.998 28.0209 259.568 29.1917C258.137 30.3625 256.59 31.4162 254.925 32.3529C254.196 32.7691 253.481 33.0033 252.779 33.0553C252.077 33.1073 251.335 33.0814 250.555 32.9772C249.306 32.7691 248.344 32.0406 247.668 30.7919C247.252 30.1155 246.965 29.413 246.809 28.6845C246.653 27.9561 246.601 27.2015 246.653 26.4211C246.965 23.0387 248.24 19.9948 250.477 17.2891C250.893 16.7688 251.348 16.3135 251.842 15.9233C252.337 15.5331 252.922 15.2338 253.598 15.0256C254.691 14.6095 255.588 14.6873 256.291 15.2599C256.993 15.8321 257.266 16.7167 257.11 17.9136C257.058 18.59 256.798 19.2405 256.33 19.8648C255.757 20.8015 255.094 21.634 254.34 22.3625C253.585 23.091 252.688 23.6373 251.647 24.0017C250.659 24.2619 250.087 24.9643 249.931 26.1089C249.879 26.5772 249.866 27.0587 249.892 27.5529C249.918 28.0471 250.035 28.5286 250.243 28.9968C250.607 30.0895 251.413 30.6879 252.662 30.7921C253.546 30.7921 254.509 30.5318 255.549 30.0115C256.902 29.3872 258.15 28.6587 259.295 27.8262C260.439 26.9935 261.454 26.0048 262.338 24.8601C262.546 24.6 262.754 24.3529 262.962 24.1187C263.17 23.8844 263.456 23.7155 263.821 23.6115L263.82 23.6111ZM254.612 17.9913C253.624 18.5637 252.857 19.2792 252.31 20.1378C251.764 20.9962 251.335 21.946 251.023 22.9866C253.052 21.8937 254.248 20.2289 254.612 17.9912V17.9913Z" fill="#FEFEFE"/>
<path d="M270.531 23.4551C270.219 23.8712 269.907 24.2875 269.595 24.7037C269.283 25.1199 268.997 25.5364 268.736 25.9525C268.164 26.7329 267.605 27.5135 267.059 28.2941C266.513 29.0745 265.953 29.8551 265.381 30.6355C265.121 30.8957 264.861 31.1689 264.601 31.4551C264.341 31.7413 264.055 31.9624 263.743 32.1184C262.598 32.7429 261.74 32.4567 261.167 31.26C260.907 30.4794 260.855 29.5687 261.011 28.5282C261.271 26.6028 261.727 24.7558 262.377 22.9866C263.027 21.2173 263.768 19.4483 264.601 17.6792C265.121 16.6904 265.771 16.4044 266.552 16.8206C266.916 16.9766 267.163 17.2498 267.293 17.6402C267.423 18.0302 267.358 18.4596 267.098 18.9278C266.682 19.8645 266.265 20.7881 265.849 21.6986C265.433 22.6091 265.043 23.5329 264.679 24.4694C264.419 25.2498 264.172 26.0304 263.938 26.8108C263.703 27.5914 263.534 28.3979 263.43 29.2304C263.43 29.3346 263.43 29.4647 263.43 29.6206C263.43 29.7769 263.508 29.9329 263.665 30.0889C264.081 29.8286 264.445 29.5556 264.757 29.2694C265.069 28.983 265.381 28.658 265.694 28.2937C266.734 27.2529 267.696 26.1473 268.581 24.9765C269.465 23.8057 270.35 22.6219 271.234 21.4251C271.338 21.3211 271.416 21.217 271.468 21.113C271.52 21.0088 271.598 20.9048 271.702 20.8006C272.067 20.3324 272.509 20.1763 273.029 20.3324C273.549 20.4885 273.887 20.8787 274.043 21.5032C274.095 21.7632 274.095 21.9974 274.043 22.2055C273.991 22.4137 273.939 22.6478 273.887 22.9079C273.627 24.1046 273.406 25.3146 273.224 26.5373C273.042 27.76 273.081 28.9959 273.341 30.2448C273.393 30.3488 273.419 30.4789 273.419 30.6348C273.419 30.791 273.445 30.9212 273.497 31.025C274.069 32.8462 275.162 33.2885 276.775 32.3519C277.399 31.9874 277.971 31.5713 278.491 31.103C279.012 30.6348 279.48 30.1145 279.896 29.542C282.393 26.368 284.266 22.8037 285.515 18.8491C285.619 18.6409 285.684 18.446 285.71 18.2638C285.736 18.0816 285.801 17.8865 285.905 17.6785C286.061 17.4182 286.23 17.1841 286.412 16.9759C286.594 16.7678 286.893 16.7157 287.309 16.8199C287.621 16.9239 287.895 17.067 288.129 17.2491C288.363 17.4311 288.48 17.7302 288.48 18.1467C288.48 18.3028 288.48 18.472 288.48 18.654C288.48 18.836 288.454 19.0052 288.402 19.1613C288.142 19.9937 288.181 20.6963 288.519 21.2685C288.857 21.8409 289.338 22.3353 289.963 22.7515C290.743 23.3239 291.575 23.6491 292.46 23.7271C293.344 23.8052 294.229 23.7141 295.113 23.454C296.205 23.1417 297.298 22.6213 298.39 21.8928C298.599 21.7889 298.833 21.6587 299.093 21.5028C299.353 21.3466 299.587 21.3986 299.795 21.6589C300.055 21.9192 300.068 22.1531 299.834 22.3613C299.6 22.5694 299.379 22.7515 299.171 22.9075C297.974 23.7923 296.7 24.4556 295.347 24.8979C293.995 25.34 292.564 25.4571 291.055 25.2491C290.275 25.1451 289.573 24.9498 288.948 24.6638C288.324 24.3776 287.726 23.9484 287.154 23.376C287.05 23.272 286.945 23.1549 286.841 23.0248C286.737 22.8947 286.555 22.8036 286.295 22.7515C286.139 23.1159 285.97 23.48 285.788 23.8442C285.606 24.2086 285.411 24.5988 285.203 25.015C284.527 26.3678 283.772 27.6687 282.94 28.9175C282.107 30.1662 281.171 31.3372 280.131 32.4297C279.194 33.3664 278.232 34.0428 277.244 34.459C276.099 35.0314 275.007 35.1484 273.966 34.8103C272.926 34.472 272.093 33.7566 271.469 32.664C270.897 31.6232 270.558 30.4264 270.454 29.0736C270.402 28.3451 270.389 27.6166 270.415 26.8883C270.441 26.1598 270.506 25.4313 270.61 24.7028C270.663 24.4947 270.715 24.2997 270.766 24.1175C270.819 23.9353 270.741 23.7143 270.532 23.4542H270.532L270.531 23.4551Z" fill="#FEFEFE"/>
</g>
<defs>
<clipPath id="clip0">
<rect width="300" height="35" fill="white"/>
</clipPath>
</defs>
</svg>
